<svg width="300" height="300" viewBox="0 0 300 300" fill="none" xmlns="http://www.w3.org/2000/svg">
<path d="M300 150C300 232.843 232.843 300 150 300C67.1573 300 0 232.843 0 150C0 67.1573 67.1573 0 150 0C232.843 0 300 67.1573 300 150ZM105 150C105 174.853 125.147 195 150 195C174.853 195 195 174.853 195 150C195 125.147 174.853 105 150 105C125.147 105 105 125.147 105 150Z" fill="#C2D8F4"/>
<path d="M150 300C118.323 300 87.4593 289.972 61.8322 271.353C36.2051 252.733 17.1302 226.479 7.34152 196.353C-2.44718 166.226 -2.44717 133.774 7.34153 103.647C17.1302 73.5209 36.2051 47.2666 61.8322 28.6474L123.55 113.594C115.862 119.18 110.139 127.056 107.202 136.094C104.266 145.132 104.266 154.868 107.202 163.906C110.139 172.944 115.862 180.82 123.55 186.406C131.238 191.992 140.497 195 150 195V300Z" fill="#143C71"/>
</svg>
